Coordinates
version=1
nRows=18
nColumns=26
inDegrees=yes

Units are S.I. units (second, meters, Newtons, ...)
If the header above contains a line with 'inDegrees', this indicates whether rotational values are in degrees (yes) or radians (no).

endheader
time	pelvis_tilt	pelvis_list	pelvis_rotation	pelvis_tx	pelvis_ty	pelvis_tz	hip_flexion_r	hip_adduction_r	hip_rotation_r	knee_angle_r	knee_angle_r_beta	hip_flexion_l	hip_adduction_l	hip_rotation_l	knee_angle_l	knee_angle_l_beta	lumbar_extension	lumbar_bending	lumbar_rotation	ankle_angle_r	subtalar_angle_r	mtp_angle_r	ankle_angle_l	subtalar_angle_l	mtp_angle_l
      4.02000000	     -0.99440733	      1.39806258	     -1.08028536	      0.05996546	      0.88060152	     -0.38411981	     22.32599908	     -2.86661060	     -5.51628104	      1.70108989	      0.02968962	     -7.91928253	     -0.67852285	    -23.45690228	     16.44498467	      0.28701913	    -11.01697904	     -1.77512835	     -6.41311002	      5.98557086	     -4.12957960	      0.00000000	     23.17843164	     10.44615347	      0.00000000
      4.02666667	     -0.94768463	      1.14448350	     -0.99809381	      0.06738500	      0.88015299	     -0.38307748	     22.23058781	     -2.55420547	     -5.63091829	      2.12803468	      0.03714121	     -8.11302322	     -1.18221425	    -23.28796547	     17.24155067	      0.30092183	    -10.99705084	     -1.39868664	     -6.39710984	      5.47302826	     -4.84117370	      0.00000000	     22.91375870	      9.80331686	      0.00000000
      4.03333333	     -0.93451704	      0.92397669	     -0.95194759	      0.07481302	      0.87978091	     -0.38198051	     22.17657640	     -2.26048634	     -5.53072596	      2.63918489	      0.04606247	     -8.23630198	     -1.64347284	    -23.07715955	     18.08567175	      0.31565452	    -10.93383943	     -1.05915681	     -6.33594767	      4.64776578	     -6.24638419	      0.00000000	     22.53053341	      8.90141015	      0.00000000
      4.04000000	     -0.79071789	      0.75702936	     -0.98357162	      0.08227696	      0.87970715	     -0.38083168	     22.01808862	     -2.02564227	     -5.37236680	      3.32659027	      0.05805995	     -8.53504802	     -1.99229883	    -22.74924358	     18.83838461	      0.32879184	    -11.01479126	     -0.77563953	     -6.22492014	      4.39231494	     -6.46415813	      0.00000000	     22.14489211	      8.64014303	      0.00000000
      4.04666667	     -0.84732856	      0.30757732	     -0.88664050	      0.08969197	      0.87944056	     -0.37952141	     22.09432121	     -1.52537034	     -5.61830096	      4.11405024	      0.07180372	     -8.34329042	     -2.84690490	    -22.64185169	     20.21562403	      0.35282920	    -10.86800598	     -0.20202569	     -6.13357025	      3.42942968	     -8.18647893	      0.00000000	     21.44767088	      6.84892647	      0.00000000
      4.05333333	     -0.76035158	     -0.03173683	     -0.90599962	      0.09720009	      0.87951798	     -0.37820599	     22.01150127	     -1.12246916	     -5.59639626	      4.95861437	      0.08654415	     -8.38064375	     -3.49329158	    -22.43195990	     21.40168803	      0.37352992	    -10.87012319	      0.27156288	     -5.90135995	      2.85977347	     -9.20724021	      0.00000000	     20.62677578	      5.74228567	      0.00000000
      4.06000000	     -0.61996770	     -0.36984467	     -0.97193432	      0.10467177	      0.87977400	     -0.37679723	     21.89898564	     -0.71960552	     -5.57617575	      5.91044387	      0.10315671	     -8.41415657	     -4.15982889	    -22.31860333	     22.70857755	      0.39633945	    -10.94644941	      0.72932769	     -5.69783829	      2.38458539	    -10.03087666	      0.00000000	     19.66634541	      4.67937523	      0.00000000
      4.06666667	     -0.67086927	     -0.67502614	     -1.00841844	      0.11201867	      0.87995621	     -0.37537583	     21.90109679	     -0.32331916	     -5.26127240	      6.66603800	      0.11634431	     -8.13213279	     -4.78466620	    -21.94161595	     24.15645349	      0.42160965	    -10.80585426	      1.14939393	     -5.49733705	      1.60401421	    -11.36424324	      0.00000000	     18.49605856	      2.77849912	      0.00000000
      4.07333333	     -0.47832023	     -1.00655836	     -1.10971812	      0.11946329	      0.88053180	     -0.37382642	     21.67180029	      0.09342291	     -5.08621573	      7.56339483	      0.13200614	     -8.10587875	     -5.47930582	    -21.84650739	     25.65331581	      0.44773482	    -10.95338985	      1.57714855	     -5.21887814	      1.28706964	    -11.98814501	      0.00000000	     17.26337923	      1.79394950	      0.00000000
      4.08000000	     -0.46016203	     -1.37342700	     -1.19221654	      0.12676274	      0.88103316	     -0.37224222	     21.54690197	      0.56951485	     -4.78472912	      8.27609507	      0.14444511	     -7.74378699	     -6.23388005	    -21.59307547	     27.37482526	      0.47778083	    -10.89859363	      2.05211282	     -4.89496556	      0.82241327	    -12.89158569	      0.00000000	     15.71190032	      0.00724633	      0.00000000
      4.08666667	     -0.43702222	     -1.60349829	     -1.30541874	      0.13396956	      0.88169234	     -0.37061815	     21.38636197	      0.92745381	     -4.30701181	      8.92796999	      0.15582247	     -7.34389496	     -6.80967525	    -21.27150044	     29.09156760	      0.50774364	    -10.87126035	      2.34044413	     -4.65187291	      0.23489677	    -13.89561156	      0.00000000	     13.97971586	     -2.08915555	      0.00000000
      4.09333333	     -0.35124177	     -1.92937367	     -1.42979710	      0.14120511	      0.88250088	     -0.36893939	     21.11170194	      1.38753112	     -3.91938329	      9.52443157	      0.16623269	     -6.94775154	     -7.54093364	    -21.08966492	     30.93235632	      0.53987146	    -10.90927905	      2.74486113	     -4.33105665	      0.00154002	    -14.46091881	      0.00000000	     12.21066587	     -3.65745134	      0.00000000
      4.10000000	     -0.27339657	     -2.23916342	     -1.55670387	      0.14838912	      0.88339789	     -0.36724643	     20.79221245	      1.83931235	     -3.53252382	     10.02134527	      0.17490547	     -6.47256793	     -8.27471100	    -20.92306994	     32.85307068	      0.57339425	    -10.94678185	      3.12120065	     -3.99293415	     -0.10254335	    -14.86995532	      0.00000000	     10.36993972	     -5.16122099	      0.00000000
      4.10666667	     -0.19269853	     -2.49707596	     -1.67742800	      0.15550204	      0.88441774	     -0.36557638	     20.43512579	      2.23494717	     -3.19273901	     10.45247979	      0.18243019	     -5.93843435	     -8.94949840	    -20.72056420	     34.79413734	      0.60727226	    -10.99967978	      3.44020139	     -3.61099563	     -0.12412329	    -15.22244583	      0.00000000	      8.42657171	     -6.67779421	      0.00000000
      4.11333333	     -0.06686202	     -2.82774099	     -1.82265434	      0.16260340	      0.88552181	     -0.36382576	     19.94919822	      2.73121108	     -2.84393186	     10.73919742	      0.18743435	     -5.40943864	     -9.76131784	    -20.68605698	     36.80805357	      0.64242173	    -11.10350374	      3.82668975	     -3.24541325	      0.06384651	    -15.35309286	      0.00000000	      6.71625933	     -7.48955115	      0.00000000
      4.12000000	      0.00513660	     -3.08688506	     -1.94483428	      0.16957766	      0.88667092	     -0.36215084	     19.48176504	      3.14680998	     -2.51994805	     10.93191779	      0.19079796	     -4.74203461	    -10.47210377	    -20.53339795	     38.83194738	      0.67774534	    -11.15985604	      4.12834213	     -2.88971564	      0.22884222	    -15.46051595	      0.00000000	      4.98459958	     -8.57928034	      0.00000000
      4.12666667	      0.06817322	     -3.30214445	     -2.05640179	      0.17647555	      0.88788560	     -0.36055479	     18.97680891	      3.50945925	     -2.25299566	     11.02935227	      0.19249851	     -4.01589108	    -11.13528570	    -20.38765642	     40.83236941	      0.71265929	    -11.21464706	      4.39468724	     -2.53642457	      0.46206556	    -15.51418274	      0.00000000	      3.33893383	     -9.57723806	      0.00000000
      4.13333333	      0.34665810	     -3.15637413	     -2.21989668	      0.18319769	      0.88948339	     -0.35897531	     18.23967094	      3.49280107	     -1.90401817	     11.09185015	      0.19358931	     -3.54233577	    -11.31051794	    -20.22302627	     42.61905816	      0.74384289	    -11.55392560	      4.16923023	     -2.20089676	      0.56347898	    -15.42382156	      0.00000000	      2.59047900	     -9.78414525	      0.00000000
